<svg version="1" xmlns="http://www.w3.org/2000/svg" width="373.333" height="373.333" viewBox="0 0 280.000000 280.000000"><path d="M8.8 66.1C7.1 67 7 71.3 7 133c0 58.5.2 66 1.6 67.4 1.2 1.2 3.7 1.6 10.9 1.6 10.4 0 12.8-1.1 12.5-5.9-.4-5.2 0-5.4 3.9-1.8 7.7 6.9 16.6 9.8 28.5 9.2 8.7-.4 11.8-1.1 17.6-4.1 10.1-5.2 16.7-14.6 20-28.4 1.8-7.1 1.8-30.8.1-38-2.8-11.8-8.4-20.9-16.3-26.3-7.5-5.2-13.4-6.7-24.8-6.4-10.7.3-17.6 2.7-24.3 8.7l-3.7 3.2V89.8c0-16.1-.3-22.7-1.2-23.6-1.5-1.5-20.5-1.6-23-.1zm58.8 58.1c7.9 5.4 11.3 19.5 9 37.5-1.7 14.5-9.3 21.5-22.7 20.9-9-.3-13.6-3.3-17.6-11.3-2.7-5.6-2.8-6.4-2.8-20.3 0-14 .1-14.6 2.8-19.2 5.1-8.8 12.6-12.2 23.1-10.6 2.7.4 6.4 1.8 8.2 3zM171.8 100.2c-6.9.9-13.6 3.9-18.5 8.5l-3.8 3.4-.3-4.5c-.3-4.2-.6-4.6-3.4-5.4-5.1-1.3-18.9-.7-19.9.9-1 1.7-1 1.6-1.1 54.2 0 31.4.3 42.1 1.2 43.2 1.9 2.3 21.2 2.1 23.1-.1 1-1.3 1.4-8.2 1.4-31.8.1-16.5.5-31.7.9-33.6 2-8.7 8.9-14.2 17.6-14.2 5.5.1 8.2 1.2 12.3 5 5.1 4.8 5.7 9.5 5.7 42.8 0 26.2.2 30.5 1.6 31.8 2.3 2.4 20.6 2.3 22.5-.1 1.1-1.3 1.4-7.7 1.4-31.7.1-32.4.7-37.1 5.1-41.9 8.3-9 24.1-7.3 28.8 3 2.5 5.6 2.4 4.9 2.5 38.5.1 26.5.3 30.9 1.7 32.2 2.3 2.4 20.6 2.3 22.5-.1 2.3-2.6 1.8-64.5-.5-73.3-3-11.5-8.7-18.9-18.1-23.5-14.7-7.2-31.5-3.9-43.4 8.4-3.1 3.2-4.6 4.2-4.9 3.2-1-2.9-8.4-10-12.5-11.9-5.6-2.6-14.9-3.9-21.9-3z"/></svg>